<svg width="80" height="80" viewBox="0 0 80 80" fill="none" xmlns="http://www.w3.org/2000/svg">
<rect width="80" height="80" fill="black"/>
<path d="M19 47.2652H25.4027V32.0985H19V26H33.3657V33.7424H33.7423C33.9934 32.7525 34.3342 31.798 34.7646 30.8788C35.2309 29.9242 35.8048 29.0934 36.4863 28.3864C37.2037 27.6439 38.0646 27.0606 39.0689 26.6364C40.0733 26.2121 41.257 26 42.62 26H45.2564V33.2121H39.338C37.3651 33.2121 35.8766 33.7955 34.8722 34.9621C33.8679 36.0934 33.3657 37.4899 33.3657 39.1515V47.2652H42.5124V53.3636H19V47.2652Z" fill="white"/>
<path d="M55.3506 54C53.3419 54 51.8892 53.5758 50.9924 52.7273C50.1316 51.8434 49.7011 50.8005 49.7011 49.5985V47.7424C49.7011 46.5404 50.1316 45.5152 50.9924 44.6667C51.8892 43.7828 53.3419 43.3409 55.3506 43.3409C57.3593 43.3409 58.794 43.7828 59.6549 44.6667C60.5516 45.5152 61 46.5404 61 47.7424V49.5985C61 50.8005 60.5516 51.8434 59.6549 52.7273C58.794 53.5758 57.3593 54 55.3506 54Z" fill="white"/>
</svg>
