<svg xmlns="http://www.w3.org/2000/svg" fill="none" viewBox="0 0 200 81">
  <path fill="#000" d="M.782 44.804h12.98V13.777H.782V1.303h29.123V17.14h.763a32.99 32.99 0 0 1 2.073-5.858c.945-1.952 2.108-3.652 3.49-5.098 1.454-1.52 3.2-2.713 5.236-3.58 2.035-.868 4.435-1.302 7.198-1.302h5.345v14.754H42.012c-4 0-7.017 1.193-9.053 3.58-2.036 2.314-3.054 5.17-3.054 8.57v16.598h18.542V57.28H.782V44.804Z" />
  <path fill="#000" d="M76.764 58.582c-4.436 0-8.435-.651-11.998-1.953-3.49-1.374-6.472-3.327-8.945-5.858-2.4-2.532-4.253-5.605-5.562-9.221-1.31-3.617-1.964-7.703-1.964-12.26 0-4.555.655-8.642 1.964-12.258 1.309-3.616 3.163-6.69 5.563-9.221 2.472-2.531 5.453-4.448 8.944-5.75C68.329.687 72.292 0 76.654 0 82.835 0 87.78 1.266 91.49 3.797c3.78 2.459 6.653 5.75 8.616 9.872l-12.434 6.726c-1.018-2.17-2.363-3.978-4.036-5.424-1.6-1.447-3.926-2.17-6.98-2.17-3.709 0-6.581 1.085-8.617 3.255-1.964 2.097-2.945 4.99-2.945 8.678v9.113c0 3.689.981 6.618 2.945 8.787 2.036 2.098 4.98 3.146 8.835 3.146 3.126 0 5.562-.723 7.308-2.17 1.818-1.446 3.344-3.326 4.58-5.64l12.217 6.943c-2.036 4.122-5.017 7.449-8.944 9.98-3.854 2.46-8.944 3.689-15.27 3.689Z" />
  <path fill="#000" d="M97.227 1.302h16.143v10.197h.763c1.382-3.327 3.381-6.075 5.999-8.244C122.75 1.085 126.313 0 130.821 0c3.127 0 5.963.579 8.508 1.736 2.618 1.157 4.836 2.929 6.654 5.315 1.89 2.387 3.344 5.425 4.362 9.113 1.091 3.689 1.637 8.064 1.637 13.127 0 5.062-.546 9.438-1.637 13.126-1.018 3.689-2.472 6.727-4.362 9.113-1.818 2.387-4.036 4.159-6.654 5.316-2.545 1.157-5.381 1.736-8.508 1.736-4.508 0-8.071-1.05-10.689-3.146-2.618-2.17-4.617-4.955-5.999-8.354h-.763v31.895H97.227V1.302Zm26.614 44.804c3.635 0 6.435-1.085 8.398-3.255 1.964-2.242 2.945-5.315 2.945-9.22v-8.68c0-3.905-.981-6.943-2.945-9.112-1.963-2.242-4.763-3.363-8.398-3.363-2.836 0-5.309.687-7.417 2.06-2.036 1.375-3.054 3.545-3.054 6.51v16.49c0 2.965 1.018 5.134 3.054 6.509 2.108 1.374 4.581 2.06 7.417 2.06Z" />
  <path fill="#000" d="M171.899 58.582c-6.253 0-11.707-.94-16.361-2.821-4.581-1.88-8.035-4.448-10.362-7.702l9.053-8.354a24.338 24.338 0 0 0 7.636 5.642c2.981 1.301 6.362 1.952 10.143 1.952 3.2 0 5.709-.47 7.526-1.41 1.818-1.013 2.727-2.531 2.727-4.556 0-1.591-.618-2.676-1.854-3.255-1.236-.65-2.945-1.157-5.126-1.519l-9.053-1.41c-2.546-.362-4.909-.904-7.09-1.627-2.182-.796-4.072-1.845-5.672-3.146a14.443 14.443 0 0 1-3.818-4.774c-.945-1.88-1.418-4.158-1.418-6.834 0-5.858 2.255-10.45 6.763-13.778C159.501 1.663 165.828 0 173.972 0c5.526 0 10.216.76 14.07 2.278 3.927 1.447 7.054 3.544 9.38 6.292l-8.071 9.113c-1.672-1.808-3.817-3.327-6.435-4.556-2.618-1.23-5.781-1.845-9.49-1.845-6.253 0-9.38 1.88-9.38 5.642 0 1.663.618 2.82 1.854 3.471 1.236.579 2.945 1.049 5.127 1.41l8.944 1.41c2.545.362 4.908.94 7.09 1.736 2.181.724 4.072 1.736 5.671 3.038a13.871 13.871 0 0 1 3.927 4.773c.945 1.88 1.418 4.159 1.418 6.835 0 5.858-2.291 10.487-6.872 13.886-4.508 3.399-10.943 5.099-19.306 5.099Z" />
  <path fill="red" d="M89.882 66.444a11.32 11.32 0 0 0-9.315 2.928l-.834.778a5.263 5.263 0 0 1-7.417-.247c-4.266-4.545-11.43-4.783-15.991-.53l-.834.777a5.263 5.263 0 0 1-7.418-.247c-4.265-4.545-11.43-4.783-15.99-.53l-.835.777a5.262 5.262 0 0 1-7.417-.247c-4.266-4.545-11.43-4.783-15.991-.53L.958 75.787a3.002 3.002 0 0 0-.139 4.26 3.041 3.041 0 0 0 4.283.137l6.882-6.416a5.263 5.263 0 0 1 7.417.247c4.266 4.545 11.43 4.783 15.991.531l.834-.778a5.263 5.263 0 0 1 7.418.247c4.265 4.545 11.43 4.783 15.99.531l.835-.778a5.263 5.263 0 0 1 7.417.247c4.266 4.545 11.43 4.783 15.991.531l.834-.778a5.262 5.262 0 0 1 5.171-1.166v-6.16ZM120.181 76.68c3.998 1.702 8.804 1.016 12.181-2.133l.834-.778a5.263 5.263 0 0 1 7.418.247c4.265 4.545 11.43 4.783 15.991.531l.834-.778a5.262 5.262 0 0 1 7.417.247c4.266 4.545 11.431 4.783 15.992.531l.417-.389a5.835 5.835 0 0 1 8.224.273l5.266 5.612a3.042 3.042 0 0 0 4.283.146 3.002 3.002 0 0 0 .147-4.259l-5.266-5.611c-4.481-4.775-12.007-5.024-16.798-.558l-.417.389a5.263 5.263 0 0 1-7.418-.247c-4.265-4.545-11.43-4.783-15.991-.53l-.834.777a5.262 5.262 0 0 1-7.417-.247c-4.266-4.545-11.431-4.783-15.992-.53l-.833.777a5.263 5.263 0 0 1-7.418-.247 11.922 11.922 0 0 0-.62-.612v7.39Z" />
</svg>
